<?xml version="1.0" encoding="UTF-8"?>
<svg id="Calque_2" data-name="Calque 2" xmlns="http://www.w3.org/2000/svg" viewBox="0 0 694.87 141.52">
  <defs>
    <style>
      .cls-1 {
        fill: #fff;
      }

      .cls-2 {
        fill: #d30000;
      }
    </style>
  </defs>
  <path d="M86.38,27.9c-11.07-.35-21.67-1.54-31.53-3.42l-23.13,27.53h0V18.31C21.28,14.62,12.33,10.01,5.39,4.73V135.32c6.95-5.25,15.9-9.84,26.34-13.51v-22.78h0l14.47,18.51c9.21-2.24,19.21-3.85,29.76-4.69l-29.37-37.59L86.38,27.9Z"/>
  <path d="M147,119.37c13.78,4.01,25.45,9.51,34.05,16.04h.34V34.11s-15.56,6.49-34.39,8.37c0,12.24,0,76.89,0,76.89Z"/>
  <circle cx="174.89" cy="18.18" r="9.65"/>
  <circle cx="150.51" cy="27.78" r="6.5"/>
  <path d="M129.8,51.18c-6.58-6.94-15.89-11.28-26.21-11.28-19.96,0-36.13,16.18-36.13,36.13s16.18,36.13,36.13,36.13c10.32,0,19.63-4.34,26.21-11.28,6.15-6.48,9.92-15.22,9.92-24.86s-3.78-18.38-9.92-24.86Zm-26.21,35.02c-5.61,0-10.17-4.55-10.17-10.17s4.55-10.17,10.17-10.17,10.17,4.55,10.17,10.17-4.55,10.17-10.17,10.17Z"/>
  <g>
    <polygon class="cls-2" points="293.34 40.1 287.65 40.1 274.01 40.1 264.13 72.84 249.45 40.23 248.02 40.23 233.34 72.93 223.42 40.1 202.82 40.1 226.8 112.27 232 112.27 248.64 76.8 265.42 112.27 270.67 112.27 287.65 61.08 293.34 43.91 294.61 40.1 293.34 40.1"/>
    <polygon class="cls-2" points="346.85 93.93 346.85 40.1 329.47 40.1 327.81 40.1 327.81 111.82 329.47 111.82 368.28 111.82 368.28 93.93 346.85 93.93"/>
    <polygon class="cls-2" points="316.42 40.1 306.61 40.1 300.61 40.1 299.04 40.1 299.04 44.83 299.04 62.92 299.04 111.82 316.42 111.82 318.08 111.82 318.08 40.1 316.42 40.1"/>
    <polygon class="cls-2" points="398.71 93.93 398.71 40.1 379.67 40.1 379.67 82.54 379.67 88.24 379.67 111.82 380 111.82 385.69 111.82 420.14 111.82 420.14 93.93 398.71 93.93"/>
    <polygon class="cls-1" points="485.48 89.53 500.21 89.53 492.87 72.53 485.48 89.53"/>
    <polygon class="cls-2" points="431.53 40.1 431.53 82.54 431.53 88.24 431.53 111.82 431.86 111.82 437.55 111.82 442.47 111.82 448.74 111.82 450.57 111.82 450.57 107.82 450.57 94.17 450.57 40.1 431.53 40.1"/>
    <polygon class="cls-2" points="604.39 39.43 573.6 81.61 542.81 39.43 535.16 39.43 535.16 94.18 535.16 107.82 535.16 111.82 537 111.82 543.27 111.82 554.2 111.82 554.2 83.39 573.56 110.62 573.69 110.62 593 83.39 593 111.82 612.05 111.82 612.05 39.43 604.39 39.43"/>
    <path class="cls-2" d="M529.47,109.07l-5.7-12.39-26.41-57.47h-9.03l-26.37,57.45-5.7,12.41-1.27,2.76h20.82l3.65-8.36h26.79l3.6,8.36h20.87l-1.27-2.75Zm-43.99-19.54l7.39-17,7.34,17h-14.73Z"/>
    <path class="cls-1" d="M612.05,28.04h-13.44l-3.41,4.67-21.59,29.58-21.59-29.58-3.41-4.67h-24.83v41.36l-16.06-34.95-3.05-6.63h-23.64l-3.05,6.64-16.01,34.89V28.71h-41.82v53.84h-10.04V28.71h-41.82v53.84h-10.04V28.71h-92.7l-2.44,8.1-1.09,3.6-2.18-4.85-3.02-6.71h-16.16l-3.02,6.73-2.2,4.9-1.11-3.67-2.45-8.1h-44.85l4.98,14.98,23.98,72.17,2.59,7.8h20.66l3.07-6.55,6.37-13.58,6.44,13.61,3.08,6.52h20.69l2.59-7.8,6.17-18.59v25.95h195.64l2.98-6.84,.67-1.53h11.83l.64,1.48,2.97,6.88h63.23v-4.14l2.09,2.93h11.76l2.17-2.94v4.14h41.82V28.04h-11.39ZM270.67,112.27h-5.25l-16.77-35.46-16.64,35.46h-5.21l-23.98-72.17h20.6l9.92,32.84,14.68-32.7h1.42l14.68,32.61,9.88-32.75h20.6l-1.27,3.81-5.7,17.17-16.98,51.18Zm47.41-.44h-19.04V40.1h19.04V111.82Zm50.2,0h-40.47V40.1h19.04v53.84h21.43v17.89Zm51.86,0h-40.47V40.1h19.04v53.84h21.43v17.89Zm30.43-17.66v17.66h-19.04V40.1h19.04v54.07Zm78.89,17.66h-19.6l-3.6-8.36h-26.79l-3.65,8.36h-20.82l1.27-2.76,5.7-12.41,26.37-57.45h9.03l26.41,57.47,5.7,12.39,1.27,2.75h-1.27Zm82.58,0h-19.04v-28.43l-19.31,27.23h-.13l-19.36-27.23v28.43h-19.04V39.43h7.65l30.79,42.18,30.79-42.18h7.65V111.82Z"/>
  </g>
  <g>
    <path d="M601.47,114.5c-1.37-3.24-2.12-6.79-2.28-10.3-.41-4.9-.24-9.81,.17-14.71,.28-4.83,1.36-10.39-1.68-14.63-1.48-2.07-3.62-3.47-5.79-4.62,2.11,1.27,4.16,2.78,5.48,4.84,2.72,4.28,1.36,9.56,.85,14.3-1.62,12.28-2.5,26.71,7.41,35.97,.06,.06,.12,.1,.19,.14-1.81-2.69-3.19-5.85-4.03-9.37-.13-.54-.22-1.07-.32-1.61Z"/>
    <path class="cls-1" d="M627.67,21.35c2.55,.74,4.99,1.83,7.54,2.47-1.41-1.25-2.89-2.3-4.33-3.13-1.11,.1-2.19,.31-3.21,.66Z"/>
    <path class="cls-1" d="M643.67,30.12c-.08-.17-.16-.35-.25-.52,.09,.17,.17,.35,.25,.52Z"/>
    <path class="cls-1" d="M642.15,27.36c-.1-.16-.2-.31-.3-.47,.1,.15,.2,.31,.3,.47Z"/>
    <path class="cls-1" d="M644.32,31.65c.59,1.55,1.03,3.2,1.27,4.96,0-.02,.02-.04,.03-.06-.24-1.59-.66-3.23-1.3-4.91Z"/>
    <path class="cls-1" d="M644.24,31.45c-.1-.25-.2-.51-.32-.76,.11,.25,.22,.5,.32,.76Z"/>
    <path class="cls-1" d="M642.85,28.5c-.07-.12-.14-.25-.22-.37,.07,.12,.15,.24,.22,.37Z"/>
    <path class="cls-1" d="M617.41,10.12c.11,.03,.22,.05,.33,.08-.11-.03-.22-.06-.33-.08Z"/>
    <path class="cls-1" d="M662.78,80.45c.2-.2,.39-.4,.6-.59-.22,.21-.42,.4-.6,.59Z"/>
    <path class="cls-1" d="M639.65,24.04c.62,.7,1.22,1.45,1.78,2.23-.53-.75-1.11-1.5-1.76-2.24,0,0-.01,0-.02,0Z"/>
    <path d="M631.08,131.78c-.1,.01-.21,.03-.3,.06,.1-.02,.2-.04,.3-.06Z"/>
    <path class="cls-1" d="M620.92,70.39c-.39-2.97-.54-7.39,1.85-8.47,3.68-1.65,4.27,2.92,4.27,2.92l1.05,.32c1.36-.88,2.71-1.75,4.01-2.67-2.13-3.21-4.8-6.03-7.82-8.41-.81-.63-1.66-1.22-2.53-1.74,.86,4.19,0,8.48-1.3,12.5-.39,1.12-.67,1.98-.82,3.09-.16,1.2-.12,2.44,.09,3.66,.2-.22,.4-.45,.62-.66,.19-.18,.38-.35,.58-.52Z"/>
    <path class="cls-1" d="M683.16,68.51c-1.61,1.07-3.27,2.03-4.95,2.94-.52,.28-1.04,.56-1.57,.84-.52,.27-1.04,.55-1.56,.82-1.52,.79-3.04,1.57-4.53,2.4-4.56,2.5-9.06,5.56-11.64,10.23,.56-1.1,1.21-2.11,1.93-3.05-.06,.06-.11,.12-.17,.19-7.61-3.05,5.4-15,5.27-24.97-.12-9.29,4.44-13.1,4.48-13.13-4.11-8.65-10.99-16.56-21.37-22.85-.66,1.33-3.01,.94-2.83-.9,0-.08,0-.16,0-.24,0-.16,0-.32,0-.49,0-.58-.02-1.16-.08-1.73-.06-.62-.16-1.23-.3-1.83-.77-3.47-2.65-6.69-5.15-9.25,.6,2.4,.71,4.9,1.13,7.33,.1,.6,.22,1.2,.38,1.79,.01,.05,.02,.1,.03,.15,.2,.66,.48,1.3,.8,1.91,.3,.56,.64,1.11,1.03,1.62-.48-.54-.92-1.13-1.3-1.76-5.85-2.82-12.59-5.2-20.34-7.01-1.35-.42-2.61-.76-3.84-1.08-1.07,2.23-3.82,1.58-5.5,1.64-1.68,.07-1.25,.86-2.37,2.38-1.42,1.92-7.92,1.8-9.85-2.6-.98-2.25-4.02-1.46-4.48-1.91-1.07,.29-2.13,.6-3.19,.91,11.14,6.11,8.16,9.43,14.51,11.22,8.42-6.53,14.54-6.82,15.54-6.82,.09,0,.14,0,.14,0,.11,0,.22,0,.33,0,2.94,0,7.86,1.84,12.31,5.39,.03,.03,.07,.05,.1,.08,.04,.03,.08,.06,.12,.1,.75,.61,1.49,1.27,2.2,1.98,.39,.39,.78,.81,1.16,1.23,0,0,.01,0,.02,0-.26-.29-.51-.59-.78-.88,5.85-3.29,2.12,1.52,7.28,2.06,5.16,.54,3.86,4.4,3.86,4.4,0,0-2.04,4.32,.86,9.14,2.89,4.82,2.31,7.12,2.31,7.12,0,0-1.18,5.92-4.56,7.8-.11,.06-.21,.1-.32,.15-2.53,12.62-9.71,24.06-20.35,31.6,.27,.38,.54,.7,.83,.94,2.59,2.15,7.33-.48,12.63-2.6s6.87,5.68,5.35,8.5c-2.08,3.87-9.99,8.27-13.21,9.42-3.22,1.15-4.32,3.37-5.9,5.78-3.7,5.64-11.96,7.6-14.22,4.79-2.71-3.34-.2-10.84-2.52-12.37-4.25-2.79-4.24-4.66-4.21-4.95-6.79,15.65-.9,34.17,13.62,37.12,1.52,.31,3.07,.46,4.63,.46,1.91,0,3.85-.24,5.8-.68,.1-.03,.2-.05,.3-.06,9.32-2.2,19.05-9.23,27.97-20.01,2.14-2.59,4.14-5.42,5.96-8.45-1.11,.64-2.25,1.26-3.45,1.81-1.01,.45-2.19,0-2.65-1.01-.49-1.07,.07-2.34,1.18-2.72,.17-.07,.34-.14,.51-.22,2.81-1.19,5.47-2.67,7.91-4.41,.85-.61,1.67-1.24,2.46-1.91,.9-.76,1.76-1.56,2.58-2.39,6.2-6.3,10-14.64,9.62-23.97Zm-46.91,55.64c-2.62,.85-5.43-.59-6.28-3.21-.85-2.62,.59-5.43,3.21-6.28,2.62-.85,5.43,.59,6.28,3.21,.85,2.62-.59,5.43-3.21,6.28Zm12.78-55.2c-1.9,1.99-1.68-.09-1.68-.09,0,0,1.22-3.11,2.63-3.32,1.41-.21-.95,3.41-.95,3.41Z"/>
    <path d="M633.18,114.66c-2.62,.85-4.06,3.66-3.21,6.28,.85,2.62,3.66,4.06,6.28,3.21,2.62-.85,4.06-3.66,3.21-6.28-.85-2.62-3.66-4.06-6.28-3.21Zm-.03,5.51c-.64,.21-1.34-.14-1.54-.79-.21-.64,.14-1.34,.79-1.54,.64-.21,1.34,.14,1.54,.79,.21,.64-.14,1.34-.79,1.54Z"/>
    <path class="cls-1" d="M632.4,117.84c-.64,.21-1,.9-.79,1.54,.21,.64,.9,1,1.54,.79,.64-.21,1-.9,.79-1.54-.21-.64-.9-1-1.54-.79Z"/>
    <path class="cls-2" d="M610.94,99.9c2.32,1.52-.19,9.03,2.52,12.37,2.27,2.8,10.52,.85,14.22-4.79,1.58-2.41,2.68-4.63,5.9-5.78,3.22-1.15,11.13-5.55,13.21-9.42,1.51-2.82-.05-10.62-5.35-8.5s-10.03,4.75-12.63,2.6c-.29-.24-.56-.57-.83-.94-2.25,1.59-4.65,3.01-7.2,4.24-2.18-2.18-3.56-4.96-4.01-7.84-4.64,3.74-7.94,8.29-10.04,13.12-.03,.29-.03,2.16,4.21,4.95Z"/>
    <path class="cls-2" d="M616.76,81.82s0,0,0-.01c-7.47,5.86-10.03,13.09-10.03,13.09,0,0,0,.02,0,.05,2.1-4.83,5.4-9.38,10.04-13.12Z"/>
    <path class="cls-2" d="M649.98,65.55c-1.41,.21-2.63,3.32-2.63,3.32,0,0-.23,2.08,1.68,.09,0,0,2.36-3.62,.95-3.41Z"/>
    <path class="cls-2" d="M670.43,44.76s0,0,0,0c-.04,.03-4.6,3.84-4.48,13.13,.13,9.96-12.88,21.92-5.27,24.97,.06-.06,.12-.13,.17-.19,.6-.79,1.24-1.52,1.93-2.22,.18-.19,.38-.39,.6-.59,.2-.19,.41-.37,.61-.55,1.71-1.48,4.71-3.58,11.21-7.5,0,0,0-.02,0-.03,.02-.01,.04-.02,.05-.03,1.56-14.94-4.83-26.99-4.83-26.99Z"/>
    <path class="cls-2" d="M660.85,82.67c.74-.82,1.21-1.47,1.93-2.22-.68,.7-1.33,1.44-1.93,2.22Z"/>
    <path class="cls-2" d="M675.2,71.81s.04-.02,.05-.03c0,0,0-.02,0-.02-.02,.01-.04,.02-.05,.03,0,0,0,.02,0,.03Z"/>
    <path class="cls-2" d="M627.04,64.84s-.6-4.57-4.27-2.92c-2.39,1.08-2.24,5.5-1.85,8.47,2.17-1.98,4.67-3.62,7.17-5.23l-1.05-.32Z"/>
    <path class="cls-2" d="M650.89,38.75c-2.89-4.82-.86-9.14-.86-9.14,0,0,1.3-3.86-3.86-4.4-5.16-.54-1.43-5.35-7.28-2.06,.27,.29,.53,.59,.78,.88,.65,.74,1.23,1.49,1.76,2.24,.02,.02,.03,.04,.05,.07,.13,.18,.26,.36,.38,.55,.1,.16,.2,.31,.3,.47,.16,.26,.32,.52,.47,.78,.07,.12,.15,.25,.22,.37,.2,.36,.39,.72,.58,1.09,.09,.18,.17,.35,.25,.52,.09,.19,.17,.38,.26,.57,.11,.25,.22,.51,.32,.76,.03,.07,.05,.13,.08,.2,.64,1.67,1.06,3.32,1.3,4.91,.42-.82,1-1.55,1.87-1.97,0,0,.96-.42,.96-.42l.2,1.11c1.03,6.26,.88,12.54-.33,18.55,.11-.05,.21-.09,.32-.15,3.38-1.87,4.56-7.8,4.56-7.8,0,0,.59-2.3-2.31-7.12Z"/>
    <path class="cls-2" d="M644.32,31.65c-.03-.07-.05-.13-.08-.2,.03,.07,.05,.13,.08,.2Z"/>
    <path class="cls-2" d="M642.63,28.13c-.15-.26-.31-.52-.47-.78,.16,.26,.32,.52,.47,.78Z"/>
    <path class="cls-2" d="M643.42,29.59c-.18-.37-.38-.73-.58-1.09,.2,.36,.4,.73,.58,1.09Z"/>
    <path class="cls-2" d="M641.47,26.34c.13,.18,.26,.37,.38,.55-.12-.19-.25-.37-.38-.55,0,0,0,0,0,0Z"/>
    <path class="cls-2" d="M643.93,30.68c-.08-.19-.17-.38-.26-.57,.09,.19,.18,.38,.26,.57Z"/>
    <path class="cls-2" d="M641.42,26.27s.03,.04,.05,.07c0,0,0,0,0,0-.02-.02-.03-.04-.05-.07Z"/>
    <path class="cls-2" d="M600.9,11.86c1.93,4.4,8.43,4.52,9.85,2.6,1.12-1.51,.69-2.31,2.37-2.38,1.67-.07,4.42,.59,5.5-1.64-.29-.07-.59-.16-.87-.23-.11-.03-.22-.06-.33-.08-4.56-1.11-8.25-1.54-11.42-1.54-3.71,0-6.7,.59-9.57,1.35,.46,.46,3.49-.33,4.48,1.91Z"/>
    <path class="cls-2" d="M617.41,10.12c-11.66-2.9-18.1-.98-20.99-.18,0,0,0,0,0,0,2.86-.77,5.86-1.35,9.57-1.35,3.17,0,6.86,.43,11.42,1.54Z"/>
    <path class="cls-2" d="M618.61,10.42c-.3-.08-.58-.14-.87-.22,.28,.07,.58,.15,.87,.23,0,0,0,0,0,0Z"/>
    <path class="cls-1" d="M646.98,37.32c-.32,.48-.56,1-.7,1.35-.13,.43-.25,.86-.38,1.28-.03,.09-.05,.17-.08,.26-1.34,4.5-2.66,9.01-4.46,13.39-1.59,4.19-4.39,8.04-7.88,10.92,0,0-.02,.02-.03,.02-.02,.02-.04,.04-.06,.05-.3,.25-.61,.48-.92,.71-.33,.24-.65,.5-.99,.72-1.52,1.18-3.21,2.21-4.87,3.29-2.27,1.48-4.45,3.06-6.05,5.16-.24,.31-.48,.61-.69,.95,0,0,0,.01-.01,.02-.21,.32-.38,.66-.54,1-.3,.63-.51,1.28-.67,1.95-.05,.24-.1,.47-.14,.71-.07,.47-.12,.94-.13,1.42,0,.04,0,.09,0,.13-.05,3.01,1.02,6.14,2.46,8.7,2.23-1.65,4.34-3.41,6.32-5.26,8.91-8.32,15.13-18.53,18.03-30.01,1.35-5.34,1.97-10.95,1.81-16.77Z"/>
    <path d="M661.37,113.69c3.34-4.03,6.43-8.8,9.05-14.05,.43-.34,.86-.66,1.28-1.01,6.09-5.11,10.83-12.06,12.5-19.9,.97-4.38,.93-8.86,.35-13.24,0,0-1.13,.9-1.13,.9-1.58,1.29-3.31,2.45-5.11,3.55,.28-6.9-.54-13.91-2.82-20.7-4.91-14.61-15.11-24.35-26.53-30.85-1-5.64-4.61-10.64-9.35-13.81l-2.48-1.88s1.45,2.74,1.45,2.74c1.63,2.79,1.93,6.02,2.69,9.1-6.11-2.68-12.31-4.58-18.02-5.93-6.65-2.04-12.29-3.03-17.24-3.03-5.58,0-9.66,1.22-13.62,2.39l-6.89,2.05,6.31,3.46c5.38,2.95,7.05,5.07,8.4,6.78,1.39,1.76,2.82,3.59,6.75,4.69l1.46,.41,1.2-.93c7.75-6.01,13.11-6.19,13.7-6.19h.16s.14,0,.14,0c.06,0,.12,0,.18,0,1.44,0,3.55,.6,5.83,1.74-1.42,.06-2.86,.3-4.25,.95,0,0-1.54,.71-1.54,.71,3.01,.69,5.77,2.28,8.6,3.57,1.97,.8,3.79,1.71,5.88,1.83,1.44,1.82,2.65,3.91,3.47,6.27,2.15,6.24,1.83,15.47-7.63,27.65-.57,.46-1.16,.89-1.76,1.32-3.07-5.61-7.62-10.5-13.34-13.43l.6,2.06c1.27,4.86-.55,10.06-2.53,14.55-1.24,3.44-1.12,7.2,.05,10.64-.19,.62-.33,1.24-.42,1.88-.46,.37-.91,.73-1.38,1.1-10.98,8.58-16.3,22.32-13.87,35.4,.1,.54,.19,1.08,.32,1.61,.83,3.53,2.21,6.68,4.03,9.37,3.34,4.96,8.17,8.35,13.93,9.52,1.7,.35,3.46,.52,5.23,.52,2.18,0,4.39-.27,6.63-.79,2.53-.19,4.9-.67,7.27-1.19,7.3-1.73,14.42-3.9,21.28-7.04,4.54-2.21,8.62-5.43,11.57-9.5,1.5-2.01,2.65-4.22,4.02-6.24,1.32-2.11,3.49-3.57,6.04-3.48-5.59-.5-7.67,5.76-10.75,9.18-6.28,7.81-16.24,10.47-25.54,12.89-.76,.18-1.52,.36-2.29,.54,6.17-3.7,12.33-9.16,18.17-16.22Zm-33.7-92.33c1.02-.35,2.1-.56,3.21-.66,1.45,.84,2.92,1.88,4.33,3.13-2.55-.64-4.98-1.73-7.54-2.47Zm-8.03,46.56c.15-1.11,.42-1.97,.82-3.09,1.31-4.02,2.17-8.31,1.3-12.5,.87,.52,1.72,1.11,2.53,1.74,3.01,2.38,5.69,5.2,7.82,8.41-1.3,.92-2.66,1.8-4.01,2.67-2.5,1.61-4.99,3.25-7.17,5.23-.19,.17-.39,.34-.58,.52-.22,.21-.42,.44-.62,.66-.2-1.22-.25-2.46-.09-3.66Zm-1.27,12.61c.01-.48,.06-.95,.13-1.42,.04-.24,.08-.48,.14-.71,.15-.67,.37-1.32,.67-1.95,.16-.34,.33-.67,.54-1,0,0,0-.01,.01-.02,.21-.34,.46-.64,.69-.95,1.6-2.1,3.78-3.68,6.05-5.16,1.65-1.08,3.34-2.11,4.87-3.29,.34-.23,.66-.48,.99-.72,.31-.23,.62-.46,.92-.71,.02-.02,.04-.04,.06-.05,0,0,.02-.02,.03-.02,3.49-2.87,6.29-6.73,7.88-10.92,1.8-4.39,3.13-8.89,4.46-13.39,.03-.09,.05-.17,.08-.26,.13-.43,.25-.86,.38-1.28,.14-.35,.39-.87,.7-1.35,.16,5.82-.47,11.44-1.81,16.77-2.89,11.48-9.12,21.69-18.03,30.01-1.98,1.85-4.08,3.6-6.32,5.26-1.44-2.57-2.51-5.69-2.46-8.7,0-.04,0-.09,0-.13Zm12.71,51.26c-.1,.02-.2,.04-.3,.06-1.96,.44-3.9,.68-5.8,.68-1.57,0-3.11-.15-4.63-.46-14.51-2.95-20.41-21.47-13.62-37.12,0-.03,0-.05,0-.05,0,0,2.56-7.23,10.03-13.09h0c.45,2.89,1.83,5.67,4.01,7.85,2.55-1.22,4.95-2.64,7.2-4.24,10.64-7.54,17.82-18.98,20.35-31.6,1.21-6.01,1.36-12.29,.33-18.55l-.2-1.11s-.96,.42-.96,.42c-.86,.43-1.44,1.15-1.87,1.97,0,.02-.02,.04-.03,.06-.25-1.76-.68-3.41-1.27-4.96-.03-.07-.05-.13-.08-.2-.1-.26-.21-.51-.32-.76-.08-.19-.17-.38-.26-.57-.08-.18-.16-.35-.25-.52-.18-.36-.37-.73-.58-1.09-.07-.12-.14-.25-.22-.37-.15-.26-.31-.52-.47-.78-.1-.16-.2-.31-.3-.47-.12-.18-.25-.37-.38-.55-.02-.02-.03-.04-.05-.07-.56-.79-1.15-1.53-1.78-2.23-.38-.42-.76-.84-1.16-1.23-.71-.71-1.45-1.37-2.2-1.98-.04-.03-.08-.06-.12-.1-.03-.03-.07-.05-.1-.08-4.45-3.55-9.37-5.39-12.31-5.39-.11,0-.22,0-.33,0,0,0-.05,0-.14,0-1,0-7.12,.28-15.54,6.82-6.36-1.79-3.37-5.12-14.51-11.22,1.06-.32,2.12-.63,3.19-.91,0,0,0,0,0,0,2.89-.79,9.33-2.71,20.99,.18,.11,.03,.22,.06,.33,.08,.29,.07,.57,.14,.87,.22,0,0,0,0,0,0,1.22,.32,2.49,.67,3.84,1.08,7.75,1.82,14.49,4.2,20.34,7.01,.38,.62,.82,1.21,1.3,1.76-.39-.51-.73-1.06-1.03-1.62-.33-.61-.6-1.25-.8-1.91-.01-.05-.02-.1-.03-.15-.15-.59-.27-1.19-.38-1.79-.42-2.43-.53-4.94-1.13-7.33,2.49,2.56,4.37,5.79,5.15,9.25,.13,.6,.23,1.22,.3,1.83,.06,.57,.09,1.15,.08,1.73,0,.16,0,.32,0,.49,0,.08,0,.16,0,.24-.18,1.84,2.17,2.23,2.83,.9,10.38,6.29,17.26,14.2,21.37,22.85,0,0,0,0,0,0,0,0,6.39,12.05,4.83,26.99,0,0,0,.02,0,.02-.02,.01-.04,.02-.05,.03-7.35,4.43-10.22,6.54-11.82,8.05-.2,.19-.4,.39-.6,.59-.71,.75-1.19,1.4-1.93,2.22-.45,.6-.87,1.23-1.26,1.89-.23,.38-.46,.77-.67,1.17,2.58-4.66,7.08-7.72,11.64-10.23,1.49-.82,3.01-1.6,4.53-2.4,.52-.27,1.04-.55,1.56-.82,.52-.28,1.05-.56,1.57-.84,1.68-.91,3.34-1.87,4.95-2.94,.38,9.33-3.42,17.67-9.62,23.97-.82,.83-1.68,1.63-2.58,2.39-.79,.67-1.61,1.3-2.46,1.91-2.44,1.74-5.1,3.23-7.91,4.41-.17,.07-.34,.15-.51,.22-1.11,.38-1.67,1.65-1.18,2.72,.45,1.01,1.64,1.46,2.65,1.01,1.21-.55,2.35-1.17,3.45-1.81-1.82,3.03-3.82,5.87-5.96,8.45-8.92,10.78-18.66,17.81-27.97,20.01Z"/>
  </g>
</svg>