<?xml version="1.0" encoding="UTF-8" standalone="no"?>
<!DOCTYPE svg PUBLIC "-//W3C//DTD SVG 1.1//EN" "http://www.w3.org/Graphics/SVG/1.1/DTD/svg11.dtd">
<svg width="100%" height="100%" viewBox="0 0 1445 946" version="1.1" xmlns="http://www.w3.org/2000/svg" xmlns:xlink="http://www.w3.org/1999/xlink" xml:space="preserve" xmlns:serif="http://www.serif.com/" style="fill-rule:evenodd;clip-rule:evenodd;stroke-linejoin:round;stroke-miterlimit:2;">
    <g transform="matrix(1,0,0,1,-11247.984295,-3669.846296)">
        <g id="mini" transform="matrix(6.844594,0,0,3.912262,11247.984295,3669.846296)">
            <rect x="0" y="0" width="211.01" height="241.588" style="fill:none;"/>
            <g id="Calque-1" serif:id="Calque 1">
            </g>
            <g id="Calque-2" serif:id="Calque 2" transform="matrix(0.811671,0,0,1.420037,20.015796,-25.56066)">
                <g transform="matrix(0,-0.929254,-1.409361,0,104.8387,24.914435)">
                    <path d="M-83.962,-90.355C-133.864,-90.355 -174.317,-49.902 -174.317,-0.001C-174.317,49.901 -133.864,90.355 -83.962,90.355C-34.061,90.355 6.392,49.901 6.392,-0.001C6.392,-49.902 -34.061,-90.355 -83.962,-90.355Z" style="fill:white;"/>
                </g>
                <g transform="matrix(0,-0.929254,-0.929254,0,103.2187,24.914435)">
                    <path d="M-118.924,53.748C-118.312,53.647 -117.697,53.528 -117.078,53.39C-116.501,53.261 -115.936,53.095 -115.367,52.939C-101.561,49.151 -90.748,37.554 -87.588,22.901C-87.453,22.269 -87.31,21.665 -87.171,21.051C-86.598,20.667 -86.06,20.234 -85.551,19.763C-81.677,19.281 -77.971,17.634 -75.222,14.82C-71.797,10.805 -67.613,6.593 -62.312,5.548L-60.036,5.168C-65.554,1.006 -72.431,-1.11 -79.299,-1.453C-79.165,-2.234 -79.019,-3.011 -78.845,-3.778C-71.482,-18.654 -62.698,-23.292 -55.643,-24.138C-52.984,-24.458 -50.389,-24.256 -47.949,-23.722C-46.847,-21.75 -45.111,-20.414 -43.415,-18.881C-40.832,-16.75 -38.004,-14.816 -35.922,-12.227L-35.953,-14.057C-35.981,-15.704 -36.42,-17.211 -37.028,-18.618C-34.849,-16.941 -33.28,-15.185 -32.603,-13.787C-32.574,-13.728 -32.547,-13.668 -32.523,-13.611L-32.466,-13.47L-32.386,-13.324C-32.111,-12.757 -29.762,-7.478 -31.951,2.846L-32.289,4.439L-31.208,5.657C-28.299,8.939 -25.858,9.473 -23.498,9.989C-21.211,10.49 -18.366,11.112 -12.99,14.938L-6.682,19.427L-7.931,11.788C-8.647,7.408 -9.388,2.878 -12.003,-2.522C-14.327,-7.32 -17.932,-12.319 -23.023,-17.8C-27.006,-22.703 -31.756,-27.811 -37.214,-32.472C-33.865,-33.186 -30.6,-34.408 -27.134,-34.138L-23.803,-34.014L-26.786,-35.54C-32.084,-38.639 -38.617,-39.787 -44.549,-38.115C-56.205,-46.122 -70.424,-51.433 -86.875,-49.341C-94.521,-48.368 -101.692,-45.877 -108.242,-42.366C-108.012,-44.621 -107.703,-46.841 -107.196,-48.98L-106.858,-50.498C-111.373,-49.009 -115.734,-46.947 -119.519,-43.954C-126.326,-38.659 -130.83,-30.809 -132.926,-22.517C-133.069,-21.944 -133.181,-21.377 -133.305,-20.807C-137.17,-15.81 -140.336,-10.575 -142.674,-5.452C-146.766,3.51 -149.171,12.035 -149.857,19.751C-150.046,18.922 -150.23,18.096 -150.407,17.278C-152.424,7.135 -154.518,-3.758 -149.897,-13.504C-148.03,-18.093 -142.94,-23.049 -146.048,-28.224C-144.774,-25.793 -145.17,-23.007 -146.59,-20.742C-147.903,-18.468 -149.501,-16.315 -150.745,-13.922C-153.306,-9.163 -154.516,-3.698 -154.525,1.739C-154.342,9.848 -153.104,17.765 -151.358,25.648C-150.755,28.185 -150.103,30.701 -149.103,33.246C-148.554,35.657 -147.775,37.929 -146.753,40.038C-145.922,41.754 -144.927,43.376 -143.794,44.86C-139.962,49.886 -134.414,52.979 -128.044,53.887C-126.612,54.091 -125.139,54.187 -123.635,54.169C-125.139,54.187 -126.612,54.092 -128.045,53.887C-127.973,53.927 -127.904,53.969 -127.821,54.001C-114.203,59.257 -100.641,51.636 -89.504,44.303C-85.148,41.592 -80.681,37.792 -75.254,38.421C-72.638,38.732 -70.215,40.006 -67.999,41.457C-70.139,39.898 -72.498,38.481 -75.194,38.015C-80.724,37.064 -85.602,40.723 -90.153,43.256C-94.709,45.956 -99.388,48.417 -104.323,50.319C-107.803,51.807 -111.585,52.744 -115.368,52.939C-115.936,53.095 -116.5,53.261 -117.078,53.39C-117.696,53.528 -118.312,53.647 -118.924,53.748Z" style="fill:rgb(222,31,0);"/>
                </g>
                <g transform="matrix(0,-0.929254,-0.929254,0,103.2187,24.914435)">
                    <path d="M-136.879,28.28C-139.006,27.807 -140.716,26.059 -141.033,23.774L-141.033,23.773C-141.439,20.837 -139.388,18.127 -136.451,17.721C-133.514,17.315 -130.804,19.367 -130.399,22.303C-129.992,25.24 -132.044,27.95 -134.98,28.356C-135.632,28.446 -136.273,28.415 -136.879,28.28Z" style="fill:rgb(222,31,0);"/>
                </g>
                <g transform="matrix(0,-0.929254,-0.929254,0,103.2187,24.914435)">
                    <path d="M-135.721,24.913C-135.621,25.634 -134.956,26.139 -134.234,26.039C-133.513,25.939 -133.008,25.274 -133.108,24.552C-133.208,23.831 -133.873,23.326 -134.596,23.426C-135.317,23.526 -135.821,24.191 -135.721,24.913Z" style="fill:rgb(222,31,0);"/>
                </g>
            </g>
        </g>
    </g>
</svg>
