<?xml version="1.0" encoding="utf-8"?>
<!-- Generator: Adobe Illustrator 27.0.0, SVG Export Plug-In . SVG Version: 6.00 Build 0)  -->
<svg version="1.1" id="Calque_2_00000132800061194556540330000011256105506702903433_"
	 xmlns="http://www.w3.org/2000/svg" xmlns:xlink="http://www.w3.org/1999/xlink" x="0px" y="0px" viewBox="0 0 182.2 156.4"
	 style="enable-background:new 0 0 182.2 156.4;" xml:space="preserve">
<style type="text/css">
	.st0{fill:#FFFFFF;}
	.st1{fill:#DD1F00;}
</style>
<g>
	<path class="st0" d="M12.1,112.4h5.5h7.2h2.9V96.8l12.1,15.5h2.7h4.8h2.4h1.6h4h2c4.7-0.7,9.6-1.3,14.6-1.7L42.7,73.1l39.8-47.4
		c-11.1-0.4-21.7-1.5-31.5-3.4L27.8,49.8V16.1C17.4,12.4,8.4,7.8,1.5,2.5v130.6c4.2-3.2,9.1-6.1,14.6-8.7l-2.3-6.8L12.1,112.4z"/>
	<path class="st0" d="M143.1,117.2c2.8,0.8,5.4,1.7,8,2.6l4.4-6l1.2-1.6h2h2.7h4v4v9.8c4.4,2.3,8.3,4.7,11.8,7.3h0.3V31.9
		c0,0-15.6,6.5-34.4,8.4C143.1,52.5,143.1,117.2,143.1,117.2z"/>
	<path class="st0" d="M171,6.3c-5.3,0-9.7,4.3-9.7,9.7c0,5.3,4.3,9.7,9.7,9.7c5.3,0,9.7-4.3,9.7-9.7C180.6,10.7,176.3,6.3,171,6.3z"
		/>
	<path class="st0" d="M146.6,32.1c3.6,0,6.5-2.9,6.5-6.5c0-3.6-2.9-6.5-6.5-6.5c-3.6,0-6.5,2.9-6.5,6.5
		C140.1,29.2,143,32.1,146.6,32.1z"/>
	<path class="st0" d="M63.5,73.8c0,20,16.2,36.1,36.1,36.1c10.3,0,19.6-4.3,26.2-11.3c6.1-6.5,9.9-15.2,9.9-24.9S132,55.5,125.9,49
		c-6.6-6.9-15.9-11.3-26.2-11.3C79.7,37.7,63.5,53.9,63.5,73.8z M99.7,63.7c5.6,0,10.2,4.6,10.2,10.2S105.3,84,99.7,84
		s-10.2-4.6-10.2-10.2S94.1,63.7,99.7,63.7z"/>
	<g>
		<polygon class="st1" points="47.4,116.4 42.6,116.4 39.2,127.9 34,116.4 33.5,116.4 28.4,127.9 24.9,116.4 17.6,116.4 26.1,141.7 
			27.9,141.7 33.7,129.3 39.6,141.7 41.5,141.7 47.4,123.7 49.4,117.7 49.9,116.4 49.4,116.4 		"/>
		<polygon class="st1" points="68.2,116.4 62.1,116.4 61.5,116.4 61.5,141.6 62.1,141.6 75.7,141.6 75.7,135.3 68.2,135.3 		"/>
		<polygon class="st1" points="54.1,116.4 52,116.4 51.4,116.4 51.4,118 51.4,124.4 51.4,141.6 57.5,141.6 58.1,141.6 58.1,116.4 
			57.5,116.4 		"/>
		<polygon class="st1" points="86.4,116.4 79.7,116.4 79.7,131.3 79.7,133.3 79.7,141.6 79.9,141.6 81.9,141.6 94,141.6 94,135.3 
			86.4,135.3 		"/>
		<polygon class="st1" points="98,131.3 98,133.3 98,141.6 98.1,141.6 100.1,141.6 101.8,141.6 104,141.6 104.6,141.6 104.6,140.2 
			104.6,135.4 104.6,116.4 98,116.4 		"/>
		<polygon class="st1" points="158.7,116.1 147.9,130.9 137,116.1 134.4,116.1 134.4,135.4 134.4,140.2 134.4,141.6 135,141.6 
			137.2,141.6 141,141.6 141,131.6 147.8,141.1 147.9,141.1 154.7,131.6 154.7,141.6 161.4,141.6 161.4,116.1 		"/>
		<g>
			<path class="st1" d="M132.4,140.6l-2-4.4l-9.3-20.2h-3.2l-9.3,20.2l-2,4.4l-0.4,1h0.4h2h4.9l1.3-2.9h9.4l1.3,2.9h4.9h2h0.4
				L132.4,140.6z M116.9,133.7l2.6-6l2.6,6H116.9z"/>
		</g>
	</g>
</g>
<g>
	<path class="st0" d="M19.2,148.1h1.3l0.9,3.8l1.1-3.8h1l1.1,3.8l0.9-3.8h1.3l-1.5,5.5h-1.4l-0.9-3.2l-0.9,3.2h-1.4L19.2,148.1z"/>
	<path class="st0" d="M30.8,152.3v1.2h-3.4v-5.5h3.4v1.2h-2.1v0.9h1.9v1.2h-1.9v1H30.8z"/>
	<path class="st0" d="M35.6,151.9c0,1-0.8,1.6-1.8,1.6h-2.3v-5.5h2.1c1,0,1.7,0.6,1.7,1.6c0,0.5-0.2,0.8-0.5,1.1
		C35.3,151,35.6,151.4,35.6,151.9z M32.8,149.2v1h0.9c0.3,0,0.5-0.2,0.5-0.5c0-0.3-0.2-0.5-0.5-0.5H32.8z M34.3,151.8
		c0-0.3-0.2-0.5-0.5-0.5h-1v1h1C34.1,152.4,34.3,152.1,34.3,151.8z"/>
	<path class="st0" d="M43,150.8c0,1.5-1.1,2.7-2.7,2.7h-2.2v-5.5h2.2C41.9,148.1,43,149.3,43,150.8z M41.8,150.8
		c0-0.9-0.6-1.5-1.5-1.5h-0.9v3.1h0.9C41.2,152.3,41.8,151.7,41.8,150.8z"/>
	<path class="st0" d="M47.1,152.3v1.2h-3.4v-5.5h3.4v1.2h-2.1v0.9h1.9v1.2h-1.9v1H47.1z"/>
	<path class="st0" d="M47.4,148.1h1.4l1.2,4l1.2-4h1.4l-1.8,5.5h-1.6L47.4,148.1z"/>
	<path class="st0" d="M56.4,152.3v1.2H53v-5.5h3.4v1.2h-2.1v0.9h1.9v1.2h-1.9v1H56.4z"/>
	<path class="st0" d="M60.3,152.3v1.2h-3.2v-5.5h1.2v4.3H60.3z"/>
	<path class="st0" d="M60.3,150.8c0-1.6,1.3-2.8,2.8-2.8s2.8,1.2,2.8,2.8c0,1.6-1.3,2.8-2.8,2.8S60.3,152.4,60.3,150.8z M64.7,150.8
		c0-1-0.7-1.6-1.6-1.6s-1.6,0.6-1.6,1.6c0,1,0.7,1.6,1.6,1.6S64.7,151.8,64.7,150.8z"/>
	<path class="st0" d="M70.7,149.9c0,1-0.8,1.9-1.9,1.9h-0.8v1.7h-1.2v-5.5h2.1C69.8,148.1,70.7,148.9,70.7,149.9z M69.4,149.9
		c0-0.4-0.3-0.7-0.7-0.7h-0.8v1.4h0.8C69.1,150.6,69.4,150.3,69.4,149.9z"/>
	<path class="st0" d="M74.7,152.3v1.2h-3.4v-5.5h3.4v1.2h-2.1v0.9h1.9v1.2h-1.9v1H74.7z"/>
	<path class="st0" d="M77.3,151.7h-0.6v1.8h-1.2v-5.5h2.2c1,0,1.9,0.8,1.9,1.9c0,0.7-0.4,1.3-1,1.6l1.2,2h-1.3L77.3,151.7z
		 M76.7,150.6h0.9c0.3,0,0.6-0.3,0.6-0.7s-0.3-0.7-0.6-0.7h-0.9V150.6z"/>
	<path class="st0" d="M95.4,151c0,1.7-1.2,2.7-2.7,2.7c-1.7,0-2.9-1.3-2.9-2.8c0-1.6,1.3-2.8,2.9-2.8c1,0,1.9,0.5,2.4,1.2l-1.1,0.6
		c-0.2-0.4-0.7-0.6-1.3-0.6c-0.9,0-1.6,0.7-1.6,1.6c0,0.9,0.7,1.6,1.7,1.6c0.7,0,1.2-0.3,1.4-0.8h-1.5v-1.1h2.7V151z"/>
	<path class="st0" d="M97.9,151.7h-0.6v1.8h-1.2v-5.5h2.2c1,0,1.9,0.8,1.9,1.9c0,0.7-0.4,1.3-1,1.6l1.2,2H99L97.9,151.7z
		 M97.3,150.6h0.9c0.3,0,0.6-0.3,0.6-0.7s-0.3-0.7-0.6-0.7h-0.9V150.6z"/>
	<path class="st0" d="M104.1,152.7h-2l-0.3,0.9h-1.4l1.9-5.5h1.6l1.9,5.5h-1.4L104.1,152.7z M103.7,151.5l-0.6-2l-0.6,2H103.7z"/>
	<path class="st0" d="M110.2,149.9c0,1-0.8,1.9-1.9,1.9h-0.8v1.7h-1.2v-5.5h2.1C109.3,148.1,110.2,148.9,110.2,149.9z M108.9,149.9
		c0-0.4-0.3-0.7-0.7-0.7h-0.8v1.4h0.8C108.6,150.6,108.9,150.3,108.9,149.9z"/>
	<path class="st0" d="M115,148.1v5.5h-1.2v-2.2H112v2.2h-1.2v-5.5h1.2v2.1h1.7v-2.1H115z"/>
	<path class="st0" d="M117.2,148.1v5.5h-1.2v-5.5H117.2z"/>
	<path class="st0" d="M117.9,150.8c0-1.6,1.2-2.8,2.8-2.8c1,0,1.9,0.5,2.3,1.3l-1.1,0.6c-0.2-0.4-0.7-0.7-1.3-0.7
		c-1,0-1.6,0.6-1.6,1.6c0,1,0.6,1.6,1.6,1.6c0.6,0,1-0.2,1.3-0.7l1.1,0.6c-0.5,0.8-1.3,1.3-2.3,1.3
		C119.1,153.6,117.9,152.4,117.9,150.8z"/>
	<path class="st0" d="M130.5,150.8c0,1.5-1.1,2.7-2.7,2.7h-2.2v-5.5h2.2C129.4,148.1,130.5,149.3,130.5,150.8z M129.3,150.8
		c0-0.9-0.6-1.5-1.4-1.5h-0.9v3.1h0.9C128.7,152.3,129.3,151.7,129.3,150.8z"/>
	<path class="st0" d="M134.6,152.3v1.2h-3.4v-5.5h3.4v1.2h-2.1v0.9h1.9v1.2h-1.9v1H134.6z"/>
	<path class="st0" d="M135.1,152.3l1.1-0.6c0.2,0.5,0.5,0.8,1.1,0.8c0.6,0,0.7-0.2,0.7-0.4c0-0.3-0.3-0.5-1.1-0.7
		c-0.8-0.2-1.6-0.6-1.6-1.7c0-1.1,0.9-1.7,1.8-1.7c0.9,0,1.6,0.4,2,1.2l-1.1,0.6c-0.2-0.4-0.4-0.6-0.9-0.6c-0.4,0-0.6,0.2-0.6,0.4
		c0,0.2,0.1,0.4,1,0.7c0.8,0.2,1.8,0.5,1.8,1.7c0,1.1-0.8,1.7-2,1.7C136.1,153.6,135.4,153.1,135.1,152.3z"/>
	<path class="st0" d="M141.1,148.1v5.5h-1.2v-5.5H141.1z"/>
	<path class="st0" d="M147.5,151c0,1.7-1.2,2.7-2.7,2.7c-1.7,0-2.9-1.3-2.9-2.8c0-1.6,1.3-2.8,2.9-2.8c1,0,1.9,0.5,2.4,1.2l-1.1,0.6
		c-0.2-0.4-0.7-0.6-1.3-0.6c-0.9,0-1.6,0.7-1.6,1.6c0,0.9,0.7,1.6,1.7,1.6c0.7,0,1.2-0.3,1.4-0.8h-1.5v-1.1h2.7V151z"/>
	<path class="st0" d="M152.5,148.1v5.5h-0.9l-2.1-3v3h-1.2v-5.5h0.9l2.1,3v-3H152.5z"/>
	<path class="st0" d="M156.8,152.3v1.2h-3.4v-5.5h3.4v1.2h-2.1v0.9h1.9v1.2h-1.9v1H156.8z"/>
	<path class="st0" d="M159.4,151.7h-0.6v1.8h-1.2v-5.5h2.2c1,0,1.9,0.8,1.9,1.9c0,0.7-0.4,1.3-1,1.6l1.2,2h-1.3L159.4,151.7z
		 M158.8,150.6h0.9c0.3,0,0.6-0.3,0.6-0.7s-0.3-0.7-0.6-0.7h-0.9V150.6z"/>
</g>
<circle class="st1" cx="84.6" cy="151" r="1.8"/>
<polygon points="46.9,120.4 46.9,120.4 46.9,120.4 "/>
<path class="st0" d="M113.9,35.9c0,0,0.1,0.1,0.1,0.1C114,36,113.9,36,113.9,35.9z"/>
<path d="M84.8,89.1c0,0-0.1,0-0.1-0.1C84.7,89.1,84.8,89.1,84.8,89.1z"/>
<path class="st1" d="M114.3,36.4c-0.1-0.1-0.2-0.2-0.3-0.3C114.1,36.2,114.2,36.3,114.3,36.4C114.3,36.4,114.3,36.4,114.3,36.4z"/>
<g>
	<path d="M77.7,77.3c0.1-0.3,0.2-0.5,0.2-0.7c0.2-1.7,0.6-3.3,1.4-4.8c0.9-2.2,2.1-4.2,3.4-6.1c1.2-2,2.9-4.1,2.6-6.5
		c-0.2-1.2-0.7-2.3-1.4-3.3c0.6,1,1.1,2.1,1.2,3.3c0.2,2.4-1.6,4.3-2.9,6.2c-3.5,4.8-7.1,10.7-5,16.8c0,0,0,0.1,0,0.1
		C77.1,80.6,77.3,79,77.7,77.3z"/>
	<path class="st0" d="M110.1,43.3c0.7,0.7,1.2,1.4,1.9,2c0.2,0.2,0.4,0.5,0.7,0.7c-0.3-0.8-0.7-1.6-1.1-2.3
		C111.1,43.6,110.6,43.4,110.1,43.3z"/>
	<path d="M112.7,46c-0.3-0.2-0.5-0.5-0.7-0.7c-0.7-0.7-1.2-1.4-1.9-2c0.5,0.1,1,0.2,1.5,0.5c-0.1-0.2-0.3-0.4-0.4-0.6
		c-0.6-0.3-1.3-0.5-2-0.5c0,0-0.8,0-0.8,0c1.1,1,1.9,2.3,2.8,3.4c0.6,0.8,1.2,1.6,2,2.1C113.1,47.4,112.9,46.7,112.7,46z"/>
	<path class="st0" d="M107.9,36c0.3,0.2,0.5,0.4,0.8,0.7C108.4,36.5,108.1,36.3,107.9,36z"/>
	<path class="st0" d="M105.4,34.1c0.1,0,0.2,0.1,0.2,0.2C105.5,34.2,105.5,34.2,105.4,34.1z"/>
	<path class="st0" d="M117.9,67.4c2.1-3.9,4.8-4.5,4.9-4.5c0.2-4.6-0.9-9.5-3.8-14.4c-0.6,0.4-1.5-0.3-1-1c0,0,0-0.1,0.1-0.1
		l-0.8-0.7c0,0,0,0,0,0c-0.1-0.3-0.1-0.7-0.2-1c-1.8-2.5-4.1-5-7-7.6c-0.5-0.5-1-0.9-1.4-1.3c-1,0.7-1.9-0.2-2.6-0.6
		c-0.7-0.4-0.7,0.1-1.5,0.5c-1,0.5-3.7-1-3.6-3.3c0.1-0.9,1.3-1.2,4.2,0.7c-1.5-1-2.9-1.6-4.1-2.1c0,0,0,0,0,0
		c-0.9-0.2,0.3,4.4,0.5,5.7c0.1,0.5,0.5,0.8,0.9,0.9c0.1,0,0.2,0,0.3,0c1.1-0.1,2.2,0,3.2,0.2c2.1,0.4,3.7,1.1,3.7,1.1
		c1.8,0.8,4.5,4.4,5.1,8.7c-0.1-0.6-0.2-1.2-0.4-1.9c3.2-0.1,0.5,1.1,2.6,2.5c2,1.4,0.6,2.7,0.6,2.7s-1.8,1.4-1.7,4
		c0.1,2.7-0.6,3.5-0.6,3.5s-1.8,2.2-3.7,2.2c-0.1,0-0.1,0-0.2,0c-3.9,4.7-9.5,7.9-15.7,8.7c0,0.2,0.1,0.4,0.1,0.6
		c0.6,1.5,3.2,1.5,5.9,1.8c2.7,0.3,1.6,3.9,0.3,4.8c-1.8,1.2-6.1,1.2-7.7,1c-1.6-0.2-2.6,0.4-3.8,1.1c-2.8,1.5-6.7,0.5-7.1-1.2
		c-0.4-2,2.4-4.6,1.7-5.8c-1.2-2.1-0.7-2.9-0.7-3c-6.4,5-8.1,14.2-2.7,18.7c1.3,1,2.7,1.8,4.4,2.3c0,0,0.1,0,0.1,0
		c0.4,0.1,0.8,0.2,1.2,0.3c4.2,0.8,9.5-0.1,15.1-2.4c1.5-0.6,3-1.3,4.4-2.2c-0.6,0-1.2,0-1.9,0c-1.3-0.1-1.1-2.1,0.2-1.9
		c0.1,0,0.2,0,0.3,0l2.8-6.9c0,0,0,0,0,0c0,0,0,0,0,0c0.5-0.3,1-0.6,1.5-0.8c0,0-0.1,0-0.1,0C107.5,73.7,115.7,71.6,117.9,67.4z
		 M90.4,88.5c-1.3-0.2-2.2-1.5-1.9-2.8s1.5-2.2,2.8-1.9c1.3,0.2,2.2,1.5,1.9,2.8C92.9,87.9,91.7,88.7,90.4,88.5z"/>
	<path class="st0" d="M114.8,50.8c-0.1,1-0.3,2-0.6,3c0,0,0,0,0,0C114.5,52.9,114.7,51.9,114.8,50.8z"/>
	<path class="st0" d="M107.2,35.5c0.1,0.1,0.1,0.1,0.2,0.2C107.3,35.6,107.3,35.5,107.2,35.5z"/>
	<path class="st0" d="M114.8,49.1c0-0.1,0-0.2,0-0.3C114.8,48.9,114.8,49,114.8,49.1z"/>
	<path class="st0" d="M111.8,76c-0.1,0-0.3,0.1-0.4,0.1C111.6,76.1,111.7,76,111.8,76z"/>
	<path class="st0" d="M114.8,50.6c0-0.1,0-0.2,0-0.3C114.8,50.4,114.8,50.5,114.8,50.6z"/>
	<path class="st0" d="M114.8,49.9c0-0.1,0-0.1,0-0.2C114.8,49.7,114.8,49.8,114.8,49.9z"/>
	<path d="M85.6,90.9c0.1-0.3,0.5-0.5,0.8-0.4c-1.7-0.5-3.2-1.2-4.4-2.3c-5.4-4.5-3.7-13.6,2.7-18.7c0,0,0,0,0,0s2.7-2.5,7.2-3.2
		c0.2-0.6,0.5-1.1,0.8-1.6c-0.3,0.1-0.5,0.1-0.8,0.2c-6.6,1.1-11.9,5.7-13.8,11.7c-0.1,0.2-0.2,0.5-0.2,0.7
		c-0.4,1.7-0.6,3.3-0.4,4.9c0.3,2.8,1.5,5.4,3.7,7.2c1.4,1.2,3.1,2,5,2.6c0,0-0.1,0-0.1,0C85.6,91.7,85.4,91.3,85.6,90.9z"/>
	<path d="M108.2,59.6c2-1.4,3.7-3.3,5.3-5.2c0.2-0.2,0.4-0.4,0.7-0.6c0.4-1,0.6-2,0.6-3c0-0.1,0-0.2,0-0.3c0-0.1,0-0.2,0-0.3
		c0-0.1,0-0.3,0-0.4c0-0.1,0-0.1,0-0.2c0-0.2,0-0.4,0-0.6c0-0.1,0-0.2,0-0.3c0-0.1,0-0.2,0-0.3c-0.5-4.3-3.3-7.8-5.1-8.7
		c0,0-1.6-0.7-3.7-1.1c-1-0.2-2.1-0.3-3.2-0.2c-0.1,0-0.2,0-0.3,0c-0.5-0.1-0.8-0.4-0.9-0.9c-0.3-1.3-1.4-5.9-0.5-5.7c0,0,0,0,0,0
		c1.3,0.4,2.6,1,4.1,2.1c0.1,0.1,0.2,0.1,0.3,0.2c0.1,0.1,0.2,0.1,0.2,0.2c0.5,0.3,1,0.7,1.6,1.2c0.1,0.1,0.1,0.1,0.2,0.2
		c0.2,0.1,0.3,0.3,0.5,0.4c0.3,0.2,0.5,0.4,0.8,0.7c0,0,0,0,0,0c0,0,0,0,0,0c0.5,0.4,0.9,0.8,1.4,1.3c2.8,2.5,5.1,5,7,7.6
		c0-0.3,0-0.6,0-0.9c0.1-0.4,0.1-0.8,0.2-1.1c-2-2.5-4.2-4.7-6.3-6.6c-3.7-3.5-6.6-5.4-9.6-6.4c-0.1,0-0.2-0.1-0.3-0.1c0,0,0,0,0,0
		c-0.5-0.1-1.1,0.1-1.5,0.5c-0.8,0.8-0.7,2.3,0.2,6c0.1,0.4,0.1,0.7,0.2,0.9c0.2,1,1,1.8,2.1,2c0.2,0,0.5,0.1,0.7,0
		c0.9-0.1,1.8,0,2.9,0.2c1.9,0.3,3.3,1,3.3,1c0.5,0.3,1.3,1,2.1,2.1c0.1,0.2,0.3,0.4,0.4,0.6c0.4,0.7,0.8,1.4,1.1,2.3
		c0.2,0.7,0.4,1.3,0.6,2.1c0.2,1,0.2,2.1,0.1,3.2c-0.4,3.2-2.6,7.1-9.5,10.1C105.4,61.2,106.9,60.6,108.2,59.6z"/>
	<path d="M119.2,48.1c-0.1,0.1-0.1,0.2-0.2,0.3c2.9,5,4,9.9,3.8,14.4c0,0,0,0,0,0s0,6.5-4.1,12.4c0.6,0,1.1,0,1.7-0.1
		c1.7-2.8,2.9-6,3.5-9.3c1.2-7.3-0.8-13.7-4.2-19C119.5,47.3,119.4,47.7,119.2,48.1z"/>
	<path d="M107.2,86.2c-1.5,0.9-2.9,1.6-4.4,2.2c-5.6,2.3-10.9,3.1-15.1,2.4c-0.4-0.1-0.8-0.2-1.2-0.3c0,0,0.1,0,0.1,0
		c1.7,0.8,3.6,1.4,5.5,1.9c3.4-0.2,7.3-1.1,11.3-2.7c2.3-0.9,4.7-2.2,7-3.8C109.3,86.1,108.2,86.2,107.2,86.2z"/>
	<path d="M86.6,90.6C86.5,90.5,86.5,90.5,86.6,90.6c-0.1-0.1-0.2-0.1-0.2-0.1c-0.3,0-0.6,0.1-0.8,0.4c-0.2,0.4,0,0.8,0.4,0.9
		c0,0,0.1,0,0.1,0c1.1,0.5,2.2,0.8,3.3,1.2c3.5,0.9,6.9,1.6,10.5,1.9c2.4,0.1,4.9-0.3,7-1.4c1.1-0.5,2.1-1.2,3.1-1.7
		c1-0.6,2.3-0.7,3.3-0.1c-2.2-1.5-4.5,0.7-6.6,1.4c-4.4,1.9-9.2,0.7-13.7-0.4c-0.4-0.1-0.7-0.2-1.1-0.3C90.2,92,88.3,91.4,86.6,90.6
		z"/>
	<path class="st0" d="M105.8,84.4c6.9,0.6,13.8-2.3,16.9-8.6c-2.3,0.2-4.6,0.1-6.9,0.1c-2.5,0-5.1,0.3-7.2,1.7c0,0,0,0,0,0
		L105.8,84.4z"/>
	<path d="M123.3,74.9c-1,0.2-1.9,0.3-3,0.3c-0.6,0-1.1,0.1-1.7,0.1c0,0,0,0,0,0c-4.1,0.2-5.8,0.4-6.8,0.7c-0.1,0-0.3,0.1-0.4,0.1
		c-0.5,0.2-0.8,0.3-1.3,0.5c-0.5,0.2-1,0.5-1.5,0.8c0,0,0,0,0,0c2.1-1.4,4.7-1.6,7.2-1.7c2.3,0,4.6,0.1,6.9-0.1
		c-3.1,6.3-10,9.3-16.9,8.6c-0.1,0-0.2,0-0.3,0c-1.3-0.2-1.5,1.8-0.2,1.9c0.6,0,1.2,0,1.9,0c1,0,2.1-0.1,3.1-0.3
		c4-0.7,7.9-2.5,10.6-5.7c1.4-1.6,2.4-3.5,3.1-5.5C124,74.8,123.3,74.9,123.3,74.9z"/>
	<path class="st0" d="M100.6,55c-0.6,2-1.9,3.6-3.4,5c-0.4,0.4-0.7,0.7-1,1.1c-0.3,0.5-0.6,1-0.8,1.6c0.1,0,0.3-0.1,0.4-0.1
		c0.1,0,0.2-0.1,0.4-0.1c0.5-1.3,1.4-3.2,2.7-3.1c1.9,0.1,1.1,2.2,1.1,2.2l0.4,0.4c0.8-0.1,1.5-0.1,2.3-0.2
		c-0.2-1.8-0.7-3.6-1.4-5.3C101,55.9,100.8,55.4,100.6,55z"/>
	<path d="M95.4,62.6c0.2-0.6,0.5-1.1,0.8-1.6c0.3-0.4,0.6-0.7,1-1.1c1.5-1.4,2.8-3,3.4-5c0.2,0.4,0.5,0.9,0.7,1.3
		c0.7,1.7,1.2,3.5,1.4,5.3c0,0,0.1,0,0.1,0c0-2.7-0.7-5.5-2-7.9c0,0-0.5-0.8-0.5-0.8c-0.2,1.4-0.7,2.6-1.6,3.8
		c-0.8,1.1-1.9,1.9-2.9,2.8c-1.3,1.2-2.1,2.8-2.4,4.5C93.8,63.4,94.5,62.9,95.4,62.6z"/>
	<path class="st0" d="M118,47.3c1.2-2,1.3-4.6,0.7-6.8c-0.4,1.5-1.1,2.8-1.5,4.2c-0.1,0.6-0.1,1.3,0,1.9c0,0,0,0,0,0c0,0,0,0,0,0
		L118,47.3z"/>
	<path d="M117.1,44.7c0,0.3,0,0.6,0,0.9c0,0.3,0.1,0.7,0.2,1c0,0,0,0,0,0c-0.1-0.6-0.1-1.3,0-1.9c0.3-1.5,1.1-2.8,1.5-4.2
		c0.6,2.3,0.5,4.8-0.7,6.8c0,0,0,0.1-0.1,0.1c-0.5,0.7,0.4,1.4,1,1c0.1-0.1,0.2-0.1,0.2-0.3c0.2-0.4,0.4-0.8,0.5-1.3
		c0.9-2.6,0.5-5.5-0.8-7.9l-0.6-1.4l0,1.5c0.1,1.5-0.6,3-0.9,4.4C117.2,43.9,117.1,44.3,117.1,44.7z"/>
	<path d="M91.3,83.8c-1.3-0.2-2.5,0.6-2.8,1.9s0.6,2.5,1.9,2.8c1.3,0.2,2.5-0.6,2.8-1.9C93.4,85.3,92.5,84,91.3,83.8z M90,86.1
		c-0.3-0.1-0.5-0.4-0.5-0.7c0.1-0.3,0.4-0.5,0.7-0.5c0.3,0.1,0.5,0.4,0.5,0.7C90.6,86,90.3,86.2,90,86.1z"/>
	<circle class="st0" cx="90.1" cy="85.5" r="0.6"/>
	<path class="st1" d="M85.2,72.6c0.6,1.2-2.1,3.8-1.7,5.8c0.3,1.7,4.2,2.7,7.1,1.2c1.2-0.7,2.2-1.3,3.8-1.1c1.6,0.2,5.9,0.2,7.7-1
		c1.3-0.8,2.4-4.5-0.3-4.8c-2.7-0.3-5.3-0.3-5.9-1.8c-0.1-0.2-0.1-0.4-0.1-0.6c-1.3,0.2-2.6,0.2-4,0.2c-0.4-1.4-0.4-2.9,0.1-4.2
		c-4.5,0.8-7.2,3.2-7.2,3.2s0,0,0,0C84.5,69.6,84.1,70.4,85.2,72.6z"/>
	<path class="st1" d="M122.7,62.8C122.7,62.8,122.7,62.8,122.7,62.8c0,0-2.8,0.6-4.9,4.5c-2.2,4.2-10.4,6.3-7.9,9.3c0,0,0.1,0,0.1,0
		c0.5-0.2,0.8-0.3,1.3-0.5c0.1,0,0.2-0.1,0.4-0.1c1-0.3,2.7-0.5,6.8-0.7c0,0,0,0,0,0C122.7,69.4,122.7,62.8,122.7,62.8z"/>
	<path class="st1" d="M98.8,59.3c-1.2-0.1-2.2,1.8-2.7,3.1c1.4-0.3,2.8-0.5,4.2-0.6l-0.4-0.4C100,61.5,100.7,59.4,98.8,59.3z"/>
	<path class="st1" d="M115.3,59.4c0,0,0.8-0.8,0.6-3.5c-0.1-2.7,1.7-4,1.7-4s1.4-1.3-0.6-2.7c-2-1.4,0.6-2.6-2.6-2.5
		c0.2,0.6,0.3,1.3,0.4,1.9c0,0.1,0,0.2,0,0.3c0,0.1,0,0.2,0,0.3c0,0.2,0,0.4,0,0.6c0,0.1,0,0.1,0,0.2c0,0.1,0,0.3,0,0.4
		c0,0.1,0,0.2,0,0.3c0,0.1,0,0.2,0,0.3c-0.1,1.1-0.3,2.1-0.6,3c0.4-0.2,0.8-0.4,1.2-0.4c0,0,0.5,0,0.5,0l-0.2,0.5
		c-1,2.9-2.5,5.5-4.3,7.7c0.1,0,0.1,0,0.2,0C113.4,61.6,115.3,59.4,115.3,59.4z"/>
	<path class="st1" d="M115.3,54.2C115.3,54.2,115.3,54.2,115.3,54.2C115.3,54.2,115.3,54.2,115.3,54.2z"/>
	<path class="st1" d="M101,33.3c-0.2,2.3,2.5,3.8,3.6,3.3c0.8-0.4,0.8-0.8,1.5-0.5c0.7,0.4,1.7,1.3,2.6,0.6c0,0,0,0,0,0c0,0,0,0,0,0
		c-0.3-0.2-0.5-0.5-0.8-0.7c-0.2-0.1-0.3-0.3-0.5-0.4c-0.1-0.1-0.1-0.1-0.2-0.2c-0.6-0.5-1.1-0.9-1.6-1.2c-0.1-0.1-0.2-0.1-0.2-0.2
		c-0.1-0.1-0.2-0.1-0.3-0.2C102.3,32.1,101,32.4,101,33.3z"/>
	<path class="st0" d="M94.5,64.3c-2.1,1.2-2.8,3.8-2.7,6.1c10-1.4,18.2-6.9,22.8-16c-0.2,0.1-0.4,0.3-0.6,0.4
		c-1.8,1.8-3.5,3.6-5.5,5.2c-1.9,1.7-4.4,2.8-7,3C99.2,63.4,96.6,63.1,94.5,64.3z"/>
	<path d="M91.8,66.3c-0.5,1.3-0.5,2.8-0.1,4.2c1.3,0.1,2.7,0,4-0.2c6.2-0.8,11.8-3.9,15.7-8.7c1.9-2.3,3.4-4.9,4.3-7.7l0.2-0.5
		c0,0-0.5,0-0.5,0c-0.5,0-0.9,0.2-1.2,0.4c0,0,0,0,0,0c-0.2,0.2-0.5,0.4-0.7,0.6c-1.6,1.9-3.3,3.8-5.3,5.2c-1.3,1.1-2.8,1.6-4.4,1.9
		c-0.3,0.1-0.7,0.1-1.1,0.2c0,0-0.1,0-0.1,0c-0.8,0.1-1.5,0.2-2.3,0.2c-1.4,0.1-2.8,0.2-4.2,0.6c-0.1,0-0.2,0.1-0.4,0.1
		c-0.1,0-0.3,0.1-0.4,0.1c-0.8,0.3-1.5,0.8-2.1,1.3c-0.2,0.2-0.4,0.4-0.6,0.7C92.3,65.2,92,65.7,91.8,66.3z M101.5,63
		c2.5-0.2,5.1-1.3,7-3c2-1.6,3.7-3.4,5.5-5.2c0.1-0.1,0.3-0.3,0.6-0.4c-4.5,9-12.8,14.5-22.8,16c0-2.3,0.7-4.9,2.7-6.1
		C96.6,63.1,99.2,63.4,101.5,63z M115.3,54.2C115.3,54.2,115.3,54.2,115.3,54.2C115.3,54.2,115.3,54.2,115.3,54.2z"/>
</g>
</svg>
