<?xml version="1.0" encoding="UTF-8" standalone="no"?>
<!DOCTYPE svg PUBLIC "-//W3C//DTD SVG 1.1//EN" "http://www.w3.org/Graphics/SVG/1.1/DTD/svg11.dtd">
<svg width="100%" height="100%" viewBox="0 0 40 29" version="1.1" xmlns="http://www.w3.org/2000/svg" xmlns:xlink="http://www.w3.org/1999/xlink" xml:space="preserve" xmlns:serif="http://www.serif.com/" style="fill-rule:evenodd;clip-rule:evenodd;stroke-linejoin:round;stroke-miterlimit:2;">
    <g id="Plan-de-travail1" serif:id="Plan de travail1" transform="matrix(0.973382,0,0,0.945322,-4.61504,-16.7496)">
        <rect x="4.741" y="17.718" width="40.664" height="29.914" style="fill:none;"/>
        <g transform="matrix(1.02735,0,0,1.05784,-0.480133,-1.99514)">
            <path d="M35.353,21.31C31.216,21.33 28.07,24.067 26.893,28.428C24.918,25.388 23.377,21.911 22.493,18.975L18.138,18.995L18.192,30.538C18.202,32.808 16.343,34.685 14.073,34.696C11.803,34.706 9.926,32.847 9.915,30.577L9.86,19.034L5.503,19.054L5.557,30.597C5.58,35.387 9.407,39.183 14.091,39.16C18.775,39.137 22.569,35.308 22.547,30.517L22.537,28.557C23.415,30.294 24.513,32.14 25.72,33.769L23.057,46.522L27.521,46.502L29.441,37.236C31.188,38.318 33.141,38.961 35.437,38.95C40.229,38.927 44.132,34.99 44.107,29.98C44.069,25.207 40.128,21.302 35.354,21.309L35.353,21.31ZM35.415,34.487C33.673,34.495 31.928,33.741 30.507,32.549L30.934,30.806L30.934,30.706C31.254,28.852 32.216,25.69 35.484,25.676C37.867,25.672 39.836,27.617 39.861,30C39.763,32.505 37.704,34.475 35.416,34.486L35.415,34.487Z" style="fill:white;fill-rule:nonzero;"/>
        </g>
    </g>
</svg>
